# xmcd
#
# Track frame offsets:
#	150
#	14649
#	33193
#	48178
#	65029
#	82089
#	98695
#	116420
#	132815
#	149526
#	167213
#
# Disc length: 2468 seconds
#
# Revision: 1
# Processed by: cddbd v1.5.2PL0 Copyright (c) Steve Scherf et al.
# Submitted via: audiograbber 1.83.01
#
DISCID=9509a20b
DTITLE=Wolfgang Fierek - Wolfgang Fierek
DYEAR=1900
DGENRE=Deutschrock
TTITLE0=Resi Mei Traktor Is Kaputt
TTITLE1=Bis Zu Den Sternen
TTITLE2=V8
TTITLE3=München
TTITLE4=Du Scho Wieder
TTITLE5=Die Mädchen Vom Land
TTITLE6=Tränen Susann
TTITLE7=25 Stund Am Tag
TTITLE8=Diamant Und Kieselstein
TTITLE9=Münchner Kind
TTITLE10=Aus Und Vorbei
EXTD=
EXTT0=
EXTT1=
EXTT2=
EXTT3=
EXTT4=
EXTT5=
EXTT6=
EXTT7=
EXTT8=
EXTT9=
EXTT10=
PLAYORDER=
